<?xml version="1.0" standalone="no"?><!DOCTYPE svg PUBLIC "-//W3C//DTD SVG 1.1//EN" "http://www.w3.org/Graphics/SVG/1.1/DTD/svg11.dtd"><svg t="1577014146216" class="icon" viewBox="0 0 1024 1024" version="1.1" xmlns="http://www.w3.org/2000/svg" p-id="16552" xmlns:xlink="http://www.w3.org/1999/xlink" width="200" height="200"><defs><style type="text/css"></style></defs><path d="M356.352 653.312c67.584 26.624 104.448 0 118.784-12.288 8.192-8.192 55.296-59.392 104.448-100.352L493.568 450.56c-6.144-8.192-10.24-18.432-4.096-28.672L608.256 204.8h-368.64c-36.864 0-65.536 28.672-65.536 65.536v471.04c0 36.864 28.672 65.536 65.536 65.536h241.664l20.48-53.248H239.616c-8.192 0-12.288-6.144-12.288-12.288v-114.688c24.576 0 77.824 6.144 129.024 26.624z m-18.432-348.16c43.008 0 77.824 34.816 77.824 77.824 0 43.008-34.816 77.824-77.824 77.824-43.008 0-77.824-34.816-77.824-77.824 0-43.008 34.816-77.824 77.824-77.824z m512-98.304h-159.744l-88.064 190.464c-4.096 8.192-2.048 18.432 4.096 24.576l63.488 63.488c2.048-2.048 6.144-2.048 10.24-2.048 65.536-8.192 114.688 24.576 186.368 96.256v163.84c0 8.192-6.144 12.288-12.288 12.288H593.92l-32.768 53.248h288.768c36.864 0 65.536-28.672 65.536-65.536v-471.04c2.048-36.864-26.624-65.536-65.536-65.536z m0 0" p-id="16553" fill="#d81e06"></path></svg>